<?xml version="1.0" encoding="UTF-8"?>
<svg version="1.1" xmlns="http://www.w3.org/2000/svg" width="512" height="512">
<path d="M0 0 C2.08848665 0.63497597 4.17878296 1.26364741 6.26964378 1.89075851 C12.20615691 3.67254766 18.13915996 5.4659012 24.07135582 7.26200485 C27.71863587 8.36583485 31.36787331 9.46298478 35.01833725 10.55623627 C36.40218083 10.97222735 37.78523315 11.39086047 39.16744995 11.81222534 C41.09610384 12.40015756 43.02752658 12.97898346 44.95905113 13.55741501 C46.60258316 14.05466583 46.60258316 14.05466583 48.27931786 14.56196213 C51.09013271 15.23330906 53.37032068 15.50645273 56.24298668 15.26981735 C58.02776133 14.10436978 58.02776133 14.10436978 59.47736168 12.3830986 C60.04680504 11.77619186 60.6162484 11.16928513 61.20294762 10.54398727 C61.79366051 9.8966362 62.3843734 9.24928513 62.99298668 8.58231735 C70.03243844 1.24329496 76.09091522 -4.32883957 86.70001793 -4.85518265 C94.13589285 -4.48967113 100.15719207 -2.04385846 105.54767418 3.1174736 C110.34453836 9.20750163 112.10038202 16.67574433 111.24298668 24.26981735 C110.40085864 27.33997556 109.37094985 30.2952725 108.24298668 33.26981735 C111.33699786 34.20966118 114.01563366 34.63406581 117.24298668 34.26981735 C120.64017836 32.04334556 123.14616367 29.12889662 125.80548668 26.08231735 C132.63217374 18.49224274 138.47388356 12.96216577 149.02033043 12.23856735 C155.90180845 12.33531924 162.01055751 14.79765567 167.24298668 19.26981735 C171.56349032 24.74530712 173.39534504 29.52216661 173.49298668 36.51981735 C173.53165855 38.16723923 173.53165855 38.16723923 173.57111168 39.84794235 C173.18025335 43.92403635 172.01295812 46.59945553 170.24298668 50.26981735 C177.56031532 52.65466417 184.89714502 54.97444995 192.24298668 57.26981735 C192.98167992 57.50128464 193.72037315 57.73275192 194.48145103 57.97123337 C199.43219301 59.52081803 204.38840005 61.05112118 209.35104942 62.56214523 C211.02888739 63.07555653 212.70515268 63.59413579 214.37979698 64.11787033 C216.75984499 64.86094173 219.14492227 65.58502048 221.53204918 66.3049736 C222.61050354 66.64809586 222.61050354 66.64809586 223.71074486 66.99814987 C227.49880253 68.11756328 227.49880253 68.11756328 231.36261559 67.74491501 C234.12974305 65.57418219 236.58969447 63.14632471 239.03986168 60.6330986 C239.59232567 60.07543304 240.14478966 59.51776749 240.71399498 58.94320297 C242.47849182 57.1609393 244.23617463 55.372154 245.99298668 53.58231735 C259.92820835 39.42451922 259.92820835 39.42451922 267.24298668 33.26981735 C268.21880699 32.40098923 269.1946273 31.5321611 270.20001793 30.63700485 C292.4871278 11.18532756 318.74602542 -6.96749788 349.30255699 -5.87080765 C356.74392465 -5.33152383 362.94100894 -1.19276348 367.93048668 4.14481735 C374.86949708 13.52185844 375.11609177 23.01451711 374.24298668 34.26981735 C369.36373457 63.45209591 346.13994457 89.43763303 326.74298668 110.39481735 C325.89776451 111.31544968 325.89776451 111.31544968 325.03546715 112.25468063 C321.51344848 116.03053848 317.85619447 119.56595524 314.02033043 123.0237236 C313.13603355 123.84276169 312.25173668 124.66179977 311.34064293 125.5056572 C309.5987403 127.11103405 307.82703046 128.68479465 306.02423668 130.22147751 C303.58611106 132.49511856 301.87689437 134.36434305 300.24298668 137.26981735 C300.36271829 140.0346269 300.36271829 140.0346269 301.32477379 142.8584404 C301.63038734 143.91515442 301.9360009 144.97186844 302.25087547 146.0606041 C302.74197052 147.64916466 302.74197052 147.64916466 303.24298668 149.26981735 C303.78020259 151.1513208 304.31684186 153.032989 304.85284996 154.91483688 C305.42022075 156.82826075 305.99044993 158.740839 306.56329918 160.65262985 C306.86742729 161.67412125 307.1715554 162.69561264 307.48489952 163.74805832 C308.12060043 165.88101641 308.7575845 168.01359248 309.39581871 170.14579391 C310.37566875 173.42049113 311.35061954 176.69661933 312.32501793 179.97294235 C312.94582507 182.05375705 313.56690864 184.1344893 314.18829918 186.21512985 C314.47995964 187.19523026 314.7716201 188.17533066 315.07211876 189.18513107 C315.34265068 190.08722305 315.6131826 190.98931503 315.89191246 191.91874313 C316.12935173 192.7130574 316.366791 193.50737167 316.6114254 194.32575607 C317.20577723 196.31954792 317.20577723 196.31954792 318.24298668 198.26981735 C319.12986168 197.77481735 320.01673668 197.27981735 320.93048668 196.76981735 C327.01918181 194.18335946 334.37831719 194.11969171 340.68439293 195.99637985 C347.3981469 199.13031434 352.44437983 204.37028165 355.24298668 211.26981735 C356.95261364 218.03399361 356.55604795 224.90172554 353.26251793 231.12137985 C350.79112919 234.69538818 347.88602676 237.63340984 344.70001793 240.56669235 C344.06289879 241.16522018 343.42577965 241.76374802 342.76935387 242.38041306 C341.47888354 243.58088414 340.16589364 244.75767404 338.82990074 245.90726852 C335.24587332 249.17641788 335.24587332 249.17641788 334.05890465 253.71561813 C334.30585055 255.96542295 334.67133497 258.08164266 335.24298668 260.26981735 C336.15564293 259.92394577 336.15564293 259.92394577 337.08673668 259.57108688 C344.86178293 256.68185434 351.14785264 256.2704427 359.00079918 259.1643486 C364.35112389 261.80222647 368.18337087 265.45821614 371.18048668 270.58231735 C373.53202183 278.74352757 374.07638024 285.50364594 370.24298668 293.26981735 C367.04075464 298.76735557 362.50604628 303.08912188 358.02033043 307.5315361 C357.46405968 308.08498703 356.90778893 308.63843796 356.33466148 309.20866013 C354.9721949 310.56381342 353.60778654 311.91701397 352.24298668 313.26981735 C352.40061485 313.79645981 352.55824303 314.32310226 352.72064781 314.86570358 C356.34344181 326.97233383 359.95471351 339.08232394 363.54829979 351.19765854 C365.14576495 356.58222209 366.74982743 361.9646403 368.36795616 367.34302902 C369.31558019 370.50315704 370.24716475 373.66793654 371.18048668 376.83231735 C371.51564293 377.93349899 371.85079918 379.03468063 372.19611168 380.16923141 C372.48872887 381.17308884 372.78134605 382.17694626 373.08283043 383.2112236 C373.33411705 384.05370651 373.58540367 384.89618942 373.84430504 385.76420212 C374.35397877 388.96737511 374.14003331 391.14330137 373.24298668 394.26981735 C371.20514488 396.95463181 371.20514488 396.95463181 368.54376793 399.6330986 C368.07109993 400.11055023 367.59843193 400.58800186 367.11144066 401.07992172 C366.11300439 402.08174653 365.10828135 403.07734074 364.09772301 404.06693649 C362.55977445 405.57810425 361.05033868 407.11410405 359.5418148 408.65458298 C358.56489821 409.62819529 357.58643159 410.60025529 356.60626793 411.5705986 C355.72237389 412.448853 354.83847984 413.32710739 353.92780113 414.23197556 C350.89981377 416.53029423 349.01096062 417.08563277 345.24298668 417.26981735 C340.84234706 415.42075342 338.55625166 412.47921202 335.74298668 408.70731735 C335.31920738 408.14286911 334.89542809 407.57842087 334.45880699 406.99686813 C329.77934017 400.72894299 325.22805153 394.36474601 320.66486168 388.01200485 C317.22869546 383.23648337 313.74070009 378.5003632 310.24298668 373.76981735 C305.70530154 367.62978564 301.20331923 361.4662684 296.74298668 355.26981735 C289.98314918 345.88200962 283.11881323 336.5728524 276.24298668 327.26981735 C260.98588445 306.62686546 260.98588445 306.62686546 254.09552574 296.99076462 C251.30139954 293.08715538 248.4624499 289.23082078 245.53986168 285.4221611 C244.93601646 284.62237839 244.33217125 283.82259567 243.71002769 282.99857712 C242.55662268 281.47299368 241.3886125 279.95830038 240.20368004 278.45707321 C236.50147549 273.5144837 235.41899544 270.45639673 236.24298668 264.26981735 C238.30548668 261.70731735 238.30548668 261.70731735 241.24298668 260.26981735 C244.61798668 260.01981735 244.61798668 260.01981735 248.24298668 261.26981735 C253.29480003 266.0428184 257.30934644 271.92603691 261.30548668 277.58231735 C262.44267906 279.17405539 263.5807286 280.76518132 264.71954918 282.35575485 C265.29994957 283.16754196 265.88034996 283.97932907 266.47833824 284.81571579 C269.34609361 288.80391128 272.26181165 292.75630827 275.18048668 296.70731735 C275.7605648 297.49332321 276.34064293 298.27932907 276.93829918 299.08915329 C278.70577676 301.48326423 280.47421683 303.87666101 282.24298668 306.26981735 C289.66358341 316.30992976 297.05494707 326.36779243 304.34869957 336.50053024 C308.27697564 341.95088695 312.25012263 347.36663734 316.24298668 352.76981735 C321.38476463 359.72805779 326.47472324 366.72128817 331.53082848 373.74198532 C336.72454693 380.95008616 341.97680008 388.1145578 347.24298668 395.26981735 C348.40108858 394.38990181 349.54407598 393.49007399 350.68048668 392.58231735 C351.31857262 392.08345016 351.95665855 391.58458298 352.61408043 391.0705986 C354.70935276 388.75424238 354.90984564 387.36939465 355.24298668 384.26981735 C354.6961697 381.22104013 354.6961697 381.22104013 353.65436363 377.97245407 C353.47160378 377.35606316 353.28884392 376.73967224 353.10054588 376.10460281 C352.48824066 374.04949818 351.85977862 371.99970603 351.23126793 369.94950485 C350.79082062 368.48289885 350.35140702 367.01598207 349.91295433 365.54877853 C348.96915997 362.39848269 348.01821109 359.25047032 347.06159019 356.10404587 C345.53607501 351.08645254 344.02612814 346.064257 342.5183773 341.04130173 C340.44110206 334.12577673 338.3572392 327.21227182 336.26886559 320.30009079 C333.5277439 311.22493133 330.80704031 302.14379839 328.09845543 293.05887985 C327.89568867 292.37884651 327.69292191 291.69881317 327.4840107 290.99817276 C326.67243717 288.27608968 325.86100591 285.55396428 325.04985046 282.83175659 C323.64169634 278.10615935 322.23152001 273.38116937 320.82013512 268.6565361 C314.542495 247.6409574 308.28445021 226.61957234 302.03418541 205.59583664 C301.31520067 203.1774909 300.59612025 200.75917363 299.87701988 198.34086227 C290.36615451 166.35470014 290.36615451 166.35470014 286.24298668 152.26981735 C283.59449946 152.26981735 283.11826632 153.10433931 281.22345543 154.91044235 C280.31853355 155.76509079 280.31853355 155.76509079 279.39533043 156.63700485 C278.74693199 157.25833298 278.09853355 157.8796611 277.43048668 158.51981735 C276.05972912 159.81704769 274.68862974 161.11391692 273.31720543 162.41044235 C272.62932945 163.06335251 271.94145348 163.71626266 271.23273277 164.38895798 C268.42638241 167.04173383 265.58702752 169.65758897 262.74298668 172.26981735 C258.61123396 176.07244132 254.50043156 179.89643986 250.40241051 183.73539352 C245.42405817 188.39816874 240.44757247 193.04131377 235.27423668 197.48856735 C231.97251168 200.38392619 228.75816276 203.37541791 225.54108238 206.36429977 C222.54000342 209.13748665 219.46384985 211.75554208 216.24298668 214.26981735 C217.72782306 218.76627102 220.25049797 222.12530038 223.18048668 225.76981735 C231.96937082 236.79750022 231.96937082 236.79750022 232.24298668 242.26981735 C230.99845645 245.08638577 229.88525508 246.78257926 227.43048668 248.64481735 C224.12096992 249.59039357 222.52988663 249.42989969 219.24298668 248.26981735 C212.68372681 242.62506968 208.04098763 234.40697977 203.24298668 227.26981735 C199.15623489 229.51381561 195.99938043 232.19570898 192.61798668 235.39481735 C188.76431159 239.00079021 184.86138763 242.4631592 180.74298668 245.76981735 C176.22440492 249.40545785 171.96315339 253.23818137 167.72125816 257.18607712 C164.50999617 260.15697363 161.21670853 262.96942812 157.80548668 265.70731735 C153.62060869 269.07328397 149.65988204 272.60161376 145.74298668 276.26981735 C140.93754751 280.7694301 135.99137424 285.00085194 130.85626793 289.1252861 C128.24451045 291.26856691 125.73933366 293.49362065 123.24298668 295.76981735 C119.92309182 298.79264156 116.54534556 301.69493897 113.05548668 304.51981735 C107.92256602 308.67538358 102.93083523 312.97454153 97.95368004 317.31376266 C92.7053012 321.88525529 87.39120235 326.37257883 82.04767418 330.83231735 C79.31792551 333.20468945 76.78663351 335.70105995 74.24298668 338.26981735 C74.50829689 338.94331726 74.7736071 339.61681717 75.04695702 340.31072617 C77.55046301 346.6743919 80.03832839 353.04397361 82.50897884 359.4204607 C83.77957346 362.69811589 85.05599801 365.97323686 86.34625816 369.24320602 C87.8310591 373.00698127 89.28952736 376.78048953 90.74689293 380.5549736 C91.21140358 381.72190247 91.67591423 382.88883133 92.15450096 384.09112167 C96.24042994 394.78530479 96.24042994 394.78530479 94.24298668 400.26981735 C92.45893642 402.57707906 90.83519753 404.40725069 88.74689293 406.38700485 C88.1981501 406.92962967 87.64940727 407.47225449 87.08403587 408.03132248 C85.33814239 409.7504052 83.57223205 411.44720026 81.80548668 413.14481735 C80.62122657 414.30753957 79.43826889 415.47158992 78.25665855 416.63700485 C68.71963173 425.98855163 68.71963173 425.98855163 64.61798668 426.76981735 C55.84743159 425.47047586 48.37043951 414.53966374 42.25299644 408.40922165 C41.16991492 407.32749778 40.08662136 406.24598618 39.00313377 405.16466904 C36.08394803 402.2500111 33.16789655 399.33223674 30.25256658 396.41372275 C27.19561376 393.35422607 24.1362082 390.29718358 21.07719994 387.23974228 C15.94877887 382.11313535 10.82245879 376.98443464 5.69733238 371.85453415 C-0.23122865 365.92051452 -6.16340702 359.99012937 -12.09744304 354.06158513 C-17.198356 348.9652041 -22.29732535 343.86688464 -27.39466244 338.76692706 C-30.43682488 335.72320453 -33.47966164 332.6801644 -36.52425385 329.63887215 C-39.38046057 326.78554586 -42.23422566 323.92980019 -45.0860939 321.07213783 C-46.13458186 320.02232396 -47.18392851 318.97336691 -48.23417854 317.92531586 C-49.66327964 316.49893234 -51.08902087 315.06918488 -52.51456642 313.63924789 C-53.31443191 312.83900538 -54.11429739 312.03876287 -54.93840122 311.21427059 C-57.0768441 308.92785548 -57.67133578 307.71962442 -58.25701332 304.64481735 C-57.71489762 300.98553634 -57.2113755 300.30971006 -54.81951332 297.6799736 C-54.18336098 296.97936813 -53.54720863 296.27876266 -52.89177895 295.55692673 C-51.83506996 294.42480759 -51.83506996 294.42480759 -50.75701332 293.26981735 C-50.01644691 292.47382126 -49.27588051 291.67782516 -48.5128727 290.85770798 C-46.12068261 288.32234442 -43.69373727 285.82485884 -41.25701332 283.33231735 C-40.44103676 282.47057907 -39.6250602 281.60884079 -38.78435707 280.72098923 C-37.98127113 279.90307907 -37.1781852 279.08516891 -36.35076332 278.2424736 C-35.63597816 277.50263229 -34.92119301 276.76279099 -34.1847477 276.00053024 C-31.0079743 273.73583328 -28.59489009 272.93146218 -24.75701332 273.26981735 C-20.39133885 274.44977598 -16.2404462 276.09473451 -12.04216957 277.7659111 C-10.83129173 278.23344299 -9.62041389 278.70097488 -8.37284279 279.18267441 C-5.16973105 280.41963475 -1.97444533 281.67567288 1.21954918 282.93595505 C4.48649144 284.22105267 7.76052968 285.48779717 11.0340023 286.75614548 C17.44402477 289.24287604 23.84595954 291.74985172 30.24298668 294.26981735 C37.64581767 286.89601108 44.42345291 279.10924103 50.99298668 270.98856735 C53.17800237 268.34834006 55.43470059 265.80252015 57.74298668 263.26981735 C60.76581089 259.94992249 63.66810829 256.57217623 66.49298668 253.08231735 C71.16840475 247.30919242 76.0282984 241.71040175 80.90704918 236.1096611 C83.59800655 233.01920367 86.26439293 229.90882263 88.9221859 226.78983688 C93.0188981 221.98226752 97.15527599 217.23358824 101.43048668 212.58231735 C104.63943712 209.08721846 107.70364505 205.52697895 110.68048668 201.83231735 C113.90242632 197.83756679 117.24962633 194.02436352 120.74298668 190.26981735 C125.10163274 185.58347636 129.21007756 180.74748334 133.22736168 175.76200485 C135.83398571 172.539086 138.52842095 169.40200858 141.24298668 166.26981735 C138.16319998 162.98965899 134.86573185 160.46877882 131.18048668 157.89481735 C125.39585928 153.82195169 119.67948245 149.66605527 113.99298668 145.45731735 C107.76997746 140.85659086 101.52436278 136.29053084 95.24298668 131.76981735 C85.04935957 124.42987056 74.94896898 116.96527023 64.84747887 109.49930954 C56.34204933 103.2148 47.82490046 96.949621 39.24298668 90.76981735 C29.04956802 83.42957514 18.94897377 75.96527377 8.84747887 68.49930954 C0.34204442 62.21479637 -8.17532931 55.94994576 -16.75701332 49.76981735 C-23.25509411 45.0871857 -29.73590937 40.38178278 -36.19451332 35.64481735 C-37.00597816 35.05249313 -37.81744301 34.46016891 -38.6534977 33.84989548 C-39.40824379 33.29495407 -40.16298988 32.74001266 -40.94060707 32.16825485 C-41.60632729 31.68018356 -42.2720475 31.19211227 -42.95794106 30.68925095 C-45.6056357 28.60027053 -47.46372399 27.12712463 -48.56951332 23.89481735 C-48.87623283 19.60074427 -47.40661542 17.03419679 -44.64983559 13.79032516 C-43.7996183 12.94308884 -42.94940102 12.09585251 -42.07341957 11.22294235 C-41.1459391 10.29610641 -40.21845863 9.36927048 -39.2628727 8.4143486 C-38.77971596 7.9394902 -38.29655922 7.46463181 -37.79876137 6.97538376 C-36.31879937 5.51911483 -34.85271226 4.04987446 -33.3878727 2.5784111 C-22.02674395 -8.69599147 -14.35060346 -4.36557191 0 0 Z M275.24298668 48.26981735 C274.61714684 48.83394333 273.99130699 49.39806931 273.3465023 49.97929001 C264.96633696 57.57355427 257.0207684 65.47879471 249.33356285 73.77225876 C243.73666738 79.79989603 237.95704964 85.62320089 232.08893394 91.38651657 C228.20620853 95.22057207 224.53091649 99.15594813 220.96930504 103.28959274 C218.08723123 106.59556088 215.06758791 109.77018646 212.05548668 112.95731735 C210.73348607 114.36190204 209.41187652 115.76685489 208.09064293 117.1721611 C207.44111656 117.86293747 206.79159019 118.55371384 206.12238121 119.26542282 C201.94259996 123.7232046 197.80457887 128.21955543 193.66925621 132.71854782 C192.21465464 134.30063245 190.75816375 135.88096355 189.30158043 137.4612236 C184.82349841 142.32575059 180.38302837 147.21499708 176.05158043 152.2112236 C173.81287418 154.75938385 171.52888456 157.26392328 169.24298668 159.76981735 C165.80717951 163.53678666 162.42000499 167.33691597 159.07892418 171.1877861 C156.87665689 173.68525092 154.62158632 176.13109435 152.36798668 178.58231735 C149.0786643 182.18372906 145.92281032 185.8428901 142.86798668 189.64481735 C139.00144483 194.44042225 134.89446685 198.93860403 130.68707848 203.43119431 C126.76405944 207.64392858 123.12394949 212.03386188 119.52033043 216.5237236 C117.02472042 219.53300977 114.405302 222.40917124 111.74298668 225.26981735 C107.43296896 229.90224678 103.39237044 234.69104535 99.42267418 239.62137985 C97.26541269 242.24256854 95.02987667 244.76136016 92.74298668 247.26981735 C89.6284 250.68721107 86.65112048 254.17504085 83.74298668 257.76981735 C80.83485288 261.36459385 77.85757336 264.85242363 74.74298668 268.26981735 C71.72016247 271.58971222 68.81786507 274.96745847 65.99298668 278.45731735 C62.38828583 282.90833927 58.68928401 287.2618034 54.93048668 291.58231735 C54.10387535 292.53255783 54.10387535 292.53255783 53.2605648 293.50199509 C52.14136183 294.7881339 51.0220583 296.07418523 49.90265465 297.36014938 C42.99252486 305.31116957 36.16122048 313.31445167 29.52033043 321.4924736 C26.96094641 324.61378069 24.35706174 327.69432869 21.74298668 330.76981735 C16.83571679 336.54408996 12.01855198 342.38584924 7.24298668 348.26981735 C8.7794252 351.95051622 11.02449613 354.25756939 13.86798668 357.01981735 C14.6852523 357.8190361 15.50251793 358.61825485 16.34454918 359.44169235 C17.28427574 360.34661423 17.28427574 360.34661423 18.24298668 361.26981735 C22.16025007 359.6179593 25.13386674 356.9655745 28.30548668 354.20731735 C29.47280636 353.20525866 30.64078494 352.20396706 31.80939293 351.2034111 C32.67975182 350.45680222 32.67975182 350.45680222 33.56769371 349.69511032 C35.93089908 347.68456049 38.33442197 345.72567093 40.74298668 343.76981735 C45.34547134 340.02360891 49.88021079 336.20458948 54.40045738 332.36014938 C57.87541691 329.41022831 61.38751741 326.51317329 64.93048668 323.64481735 C69.33025165 320.06642674 73.538801 316.32150918 77.73126793 312.50419235 C80.244499 310.26847202 82.81610147 308.13604053 85.43048668 306.01981735 C91.87010661 300.8046322 98.09754071 295.35649984 104.3465023 289.91630173 C107.32153856 287.33344326 110.31242728 284.76924821 113.30548668 282.20731735 C114.16557335 281.47098068 114.16557335 281.47098068 115.04303551 280.71976852 C116.19829186 279.73096532 117.35364643 278.74227686 118.50909996 277.75370407 C122.00295331 274.76361105 125.49384689 271.7700609 128.98444176 268.77616501 C131.94762351 266.23510902 134.91329374 263.69706088 137.88361168 261.1643486 C143.12075463 256.69440796 148.33731142 252.21686546 153.43048668 247.58231735 C156.72240873 244.59063575 160.08889975 241.74457313 163.55548668 238.95731735 C169.00674769 234.54843628 174.12012166 229.83457755 179.24298668 225.0549736 C182.2017469 222.29635396 185.22693753 219.62370409 188.28595543 216.9768486 C190.62857818 214.93348305 192.9357209 212.85300876 195.24298668 210.76981735 C198.20168419 208.09933391 201.1722514 205.44683677 204.18048668 202.83231735 C208.37740749 199.17802873 212.47951428 195.42236762 216.59064293 191.6721611 C218.76759664 189.70039891 220.96137342 187.75616398 223.18048668 185.83231735 C228.63410311 181.08811444 233.92868686 176.16858242 239.24298668 171.26981735 C240.28723164 170.30885174 241.33150244 169.3479142 242.37579918 168.38700485 C248.85464965 162.4202216 255.30371738 156.4223098 261.73322105 150.40238571 C264.54671553 147.77142139 267.36444949 145.14780068 270.22736168 142.5705986 C277.30908039 136.18335783 284.06188856 129.52328928 290.75006676 122.72587204 C294.85834208 118.5696402 299.05367425 114.60903165 303.48370934 110.79764938 C309.17642655 105.85384917 314.36566058 100.32211346 319.25470543 94.59012985 C320.77590997 92.81489312 322.32562121 91.06404713 323.88751793 89.32450485 C339.45101727 71.85654521 359.31930379 47.69100041 358.59064293 23.04325485 C358.05405371 18.76259931 356.96785769 16.64005255 354.24298668 13.26981735 C332.07681812 -3.90896328 290.53370965 34.42471675 275.24298668 48.26981735 Z M-21.89763832 14.01981735 C-22.94177895 15.13356735 -22.94177895 15.13356735 -24.00701332 16.26981735 C-25.0666227 17.38356735 -25.0666227 17.38356735 -26.14763832 18.51981735 C-26.94427895 19.38606735 -26.94427895 19.38606735 -27.75701332 20.26981735 C-23.76207772 24.5389152 -19.40175982 27.84393513 -14.63201332 31.20731735 C-13.01292121 32.36272348 -11.39445153 33.51900225 -9.77654457 34.67606735 C-8.5305851 35.56552048 -8.5305851 35.56552048 -7.25945473 36.47294235 C-3.25358217 39.34935426 0.71425756 42.27659807 4.68048668 45.20731735 C5.46625084 45.78723434 6.252015 46.36715134 7.06159019 46.96464157 C10.25479131 49.32198588 13.44660009 51.68121202 16.63849449 54.04032516 C25.88103329 60.86947154 35.14686948 67.66188665 44.47369957 74.37553024 C50.72923878 78.88413149 56.93617014 83.4566234 63.13751793 88.0393486 C68.48156489 91.98397246 73.85217217 95.8893985 79.24298668 99.76981735 C89.43655131 107.10985268 99.53700295 114.57436342 109.63849449 122.04032516 C119.09019473 129.02401718 128.56103834 135.97734133 138.10651207 142.83256149 C142.86358663 146.25322274 147.56830993 149.73738702 152.24298668 153.26981735 C156.21427099 151.4545838 158.69769217 148.87571281 161.55548668 145.64481735 C162.04404137 145.10212204 162.53259605 144.55942673 163.03595543 144.0002861 C166.18457513 140.49349008 169.28808495 136.94747916 172.37579918 133.38700485 C175.22503347 130.15628313 178.14714356 126.99278263 181.06427574 123.82352829 C183.89801079 120.74321398 186.70634295 117.64296146 189.49298668 114.51981735 C194.14608949 109.33110558 198.9254064 104.26408918 203.70123863 99.18876266 C208.62503521 93.94889677 213.47142382 88.64914025 218.24298668 83.26981735 C215.71506216 80.74189283 213.71712106 80.35020152 210.28619957 79.34061813 C209.67021841 79.1574117 209.05423725 78.97420527 208.41959 78.78544712 C206.35336157 78.17256189 204.28454571 77.56892012 202.21564293 76.96512985 C200.74473135 76.53070185 199.27399638 76.09567548 197.80342674 75.6600914 C194.63878704 74.72400817 191.47300625 73.79192678 188.30628014 72.86292648 C183.24860679 71.37909927 178.19357154 69.88642776 173.13898277 68.39213181 C167.92741141 66.85181271 162.71570667 65.31195687 157.50311852 63.77508163 C142.77482577 59.43233578 128.05919851 55.0480717 113.3480587 50.64762497 C106.6027839 48.63006758 99.85647234 46.6159809 93.11017418 44.6018486 C92.42086248 44.39603542 91.73155079 44.19022224 91.02135086 43.9781723 C71.46603649 38.13967504 51.90616273 32.31647902 32.34603691 26.49412537 C29.50893785 25.64956576 26.67188469 24.8048521 23.83484459 23.96009445 C19.37281818 22.63150726 14.91067116 21.30332592 10.4484272 19.97546959 C8.79915094 19.48462808 7.14991147 18.99366295 5.50071144 18.50256538 C3.22903929 17.82614744 0.95722312 17.15021533 -1.31463051 16.4744072 C-1.96983114 16.27920077 -2.62503178 16.08399435 -3.30008698 15.88287258 C-5.11822135 15.34235032 -6.93759834 14.80601325 -8.75701332 14.26981735 C-9.98301247 13.89434769 -11.20901161 13.51887802 -12.47216225 13.13203049 C-17.50369283 11.75239883 -17.50369283 11.75239883 -21.89763832 14.01981735 Z M82.68048668 12.64481735 C78.85715462 15.22253897 76.03027141 18.63511638 73.24298668 22.26981735 C75.65565993 23.13705935 78.07203137 23.98878671 80.49298668 24.83231735 C81.17490074 25.07917282 81.8568148 25.32602829 82.55939293 25.58036423 C85.32284092 26.53281475 87.66937055 27.31335917 90.61017418 27.09012985 C93.588722 25.59373023 94.21159599 23.30668994 95.24298668 20.26981735 C95.0723382 17.00782249 95.0723382 17.00782249 93.24298668 14.26981735 C89.08523673 11.49798406 87.40482359 10.82138907 82.68048668 12.64481735 Z M138.24298668 36.26981735 C137.67064293 36.79962204 137.09829918 37.32942673 136.50861168 37.8752861 C135.01896898 39.20278138 135.01896898 39.20278138 135.24298668 41.26981735 C137.46779897 41.9712805 139.69806036 42.6554769 141.93048668 43.33231735 C143.17185387 43.71516891 144.41322105 44.09802048 145.69220543 44.4924736 C149.1224122 45.24342096 150.95606867 45.37141125 154.24298668 44.26981735 C156.94029655 41.85153954 157.22709207 40.39697421 157.68048668 36.76981735 C157.50038865 33.28591021 157.50038865 33.28591021 155.68048668 30.83231735 C148.22174476 26.05107253 143.45343195 30.9800827 138.24298668 36.26981735 Z M323.24298668 215.26981735 C323.24298668 221.53285904 325.31420184 227.3500249 327.24298668 233.26981735 C330.4001824 231.87591196 332.52425198 230.23346763 334.93048668 227.76981735 C335.53247887 227.16137985 336.13447105 226.55294235 336.75470543 225.92606735 C338.98898188 223.43962847 339.23847015 222.31859586 339.55548668 218.89481735 C339.5287987 215.29957085 339.5287987 215.29957085 337.68048668 212.83231735 C332.42058382 209.46058475 327.09799325 210.45105914 323.24298668 215.26981735 Z M342.24298668 276.26981735 C340.75698461 279.22766908 341.35758577 280.69226107 342.23908043 283.94169235 C342.70888573 285.30478941 343.18972118 286.66412571 343.68048668 288.01981735 C343.92347496 288.71720016 344.16646324 289.41458298 344.4168148 290.1330986 C345.01608916 291.84866833 345.62828553 293.55971451 346.24298668 295.26981735 C351.16148001 291.4980514 354.9795221 288.1342483 357.24298668 282.26981735 C356.58679239 278.37745789 356.58679239 278.37745789 354.24298668 275.26981735 C349.4629504 272.50801861 346.69060666 273.16682667 342.24298668 276.26981735 Z M-28.67498207 293.89481735 C-29.77252088 295.01231141 -30.86209227 296.13767378 -31.94451332 297.26981735 C-32.78272621 298.12833298 -32.78272621 298.12833298 -33.6378727 299.00419235 C-35.01774425 300.41944523 -36.38828066 301.8437889 -37.75701332 303.26981735 C-36.44324416 306.17525607 -35.0364484 308.23642794 -32.77605629 310.47782516 C-32.17558479 311.0781456 -31.5751133 311.67846603 -30.95644569 312.296978 C-30.31055489 312.93254623 -29.66466408 313.56811447 -28.99920082 314.22294235 C-28.00462364 315.21327469 -28.00462364 315.21327469 -26.98995399 316.22361374 C-24.875295 318.32709559 -22.7537812 320.42350877 -20.63201332 322.51981735 C-19.19535775 323.94643996 -17.75915434 325.37351807 -16.32341957 326.80106735 C-12.80650528 330.29595396 -9.28342785 333.78451797 -5.75701332 337.26981735 C-2.04414683 335.55659536 -0.23269546 333.69765082 2.30548668 330.45731735 C3.08021324 329.48149704 3.8549398 328.50567673 4.65314293 327.5002861 C5.27406822 326.71790573 5.27406822 326.71790573 5.90753746 325.9197197 C7.32193557 324.17227867 8.77321628 322.46255903 10.23908043 320.7580986 C10.73851158 320.17713425 11.23794273 319.59616989 11.75250816 318.99760056 C12.73210373 317.86203989 13.71460848 316.72898116 14.70026207 315.59867477 C16.79911141 313.15348315 18.21260346 311.360967 19.24298668 308.26981735 C11.47779748 304.71297332 3.57216337 301.54822036 -4.37029457 298.41386032 C-6.64968146 297.51283325 -8.92598165 296.60428082 -11.20232582 295.6955986 C-12.6552678 295.12091692 -14.10838648 294.54668173 -15.56170082 293.97294235 C-16.23981819 293.70113144 -16.91793556 293.42932053 -17.61660194 293.14927292 C-23.52342296 290.66885961 -23.52342296 290.66885961 -28.67498207 293.89481735 Z M59.24298668 349.26981735 C52.64924317 354.62145287 46.11695156 360.03447408 39.66022301 365.55033493 C36.91816486 367.88549877 34.15562419 370.15025946 31.24298668 372.26981735 C32.55675584 375.17525607 33.9635516 377.23642794 36.22394371 379.47782516 C36.82441521 380.0781456 37.4248867 380.67846603 38.04355431 381.296978 C39.01239052 382.25033035 39.01239052 382.25033035 40.00079918 383.22294235 C40.66385063 383.88316391 41.32690208 384.54338547 42.01004601 385.22361374 C44.124705 387.32709559 46.2462188 389.42350877 48.36798668 391.51981735 C49.80464225 392.94643996 51.24084566 394.37351807 52.67658043 395.80106735 C56.19349472 399.29595396 59.71657215 402.78451797 63.24298668 406.26981735 C66.98421219 404.5138334 69.56990344 402.3392045 72.55548668 399.45731735 C73.45911949 398.60524704 74.3627523 397.75317673 75.29376793 396.8752861 C77.49756457 394.52898154 77.49756457 394.52898154 77.07159996 392.16849899 C75.91368645 388.11784868 74.44485798 384.21641269 72.93439293 380.28544235 C72.60761055 379.42924301 72.28082817 378.57304367 71.9441433 377.6908989 C71.25441858 375.88811884 70.56256513 374.08615195 69.8687191 372.28495407 C68.80502367 369.51861321 67.75321854 366.74793992 66.70197105 363.9768486 C66.0301645 362.22527039 65.35766262 360.47395868 64.68439293 358.72294235 C64.36974586 357.89071152 64.0550988 357.05848068 63.73091698 356.20103073 C62.40071138 351.99504449 62.40071138 351.99504449 59.24298668 349.26981735 Z " fill="#000000" transform="translate(137.75701332092285,6.730182647705078)"/>
<path d="M0 0 C2.9769218 2.53038353 3.88989904 4.01367499 4.32327271 7.89599609 C3.92652091 11.70553244 2.9700238 12.81544726 0.32763672 15.5390625 C-0.49915588 16.40305664 -1.32594849 17.26705078 -2.17779541 18.15722656 C-3.11760444 19.10573594 -4.05837786 20.05329054 -5 21 C-5.99940334 22.02256203 -6.99822543 23.0456924 -7.996521 24.06933594 C-11.38716654 27.52925811 -14.81349431 30.952846 -18.2421875 34.375 C-19.50023719 35.6337249 -20.75813853 36.89259808 -22.01589966 38.15161133 C-24.63137725 40.76855186 -27.24862643 43.38370356 -29.8671875 45.99755859 C-33.22302428 49.34765732 -36.57429509 52.70228233 -39.92428398 56.05822754 C-42.51151218 58.64906421 -45.10111091 61.23752088 -47.69144058 63.82525635 C-48.92895003 65.06209946 -50.16571913 66.2996838 -51.40172958 67.5380249 C-53.12202152 69.26085251 -54.8454791 70.98044921 -56.56982422 72.69921875 C-57.07789108 73.20930984 -57.58595795 73.71940094 -58.10942078 74.24494934 C-63.76344428 79.86510301 -63.76344428 79.86510301 -68.4375 80.375 C-72 80 -72 80 -74.4375 78.5 C-76.17488024 75.72019161 -76.87896555 73.53940324 -76.69058228 70.23913574 C-75.7862639 67.3069846 -74.35661993 65.79086663 -72.26318359 63.54882812 C-71.03411285 62.23096313 -71.03411285 62.23096313 -69.7802124 60.88647461 C-64.5856547 55.46591967 -59.29026869 50.14713221 -53.9765625 44.84375 C-52.74093308 43.60744532 -51.505452 42.37099237 -50.27011108 41.13439941 C-47.70171175 38.56453741 -45.13154168 35.99646369 -42.56005859 33.4296875 C-39.26475548 30.14012319 -35.97401975 26.84603188 -32.68456459 23.55062103 C-30.14365956 21.00610743 -27.60038396 18.46397402 -25.05637741 15.92256165 C-23.84119669 14.70804719 -22.62675613 13.49279169 -21.41307449 12.27677917 C-19.72391549 10.58508425 -18.03159102 8.89662123 -16.33837891 7.20898438 C-15.83966278 6.70824402 -15.34094666 6.20750366 -14.82711792 5.69158936 C-10.22744014 1.11996695 -6.66226732 -1.30028155 0 0 Z " fill="#000000" transform="translate(76,51)"/>
<path d="M0 0 C2.875 1.5 2.875 1.5 5 4 C5.84520162 7.50154958 6.06805993 8.70538011 5 12 C3.40489197 14.15098572 3.40489197 14.15098572 1.26147461 16.44897461 C0.44266815 17.3275412 -0.37613831 18.20610779 -1.21975708 19.11129761 C-6.42383928 24.54642974 -11.73280236 29.87593588 -17.05859375 35.19140625 C-18.29661884 36.43010652 -19.53449558 37.66895506 -20.77223206 38.90794373 C-23.34482764 41.48200181 -25.91919371 44.05427187 -28.49487305 46.62524414 C-31.7992457 49.92387202 -35.09904319 53.22703483 -38.3975668 56.53151035 C-40.94272274 59.08027029 -43.49024355 61.62665572 -46.03849983 64.1723156 C-47.25729865 65.39044717 -48.47535462 66.60932246 -49.69265556 67.82895088 C-51.38441653 69.52324085 -53.07933083 71.21431073 -54.77514648 72.90454102 C-55.27745789 73.40887665 -55.77976929 73.91321228 -56.29730225 74.43283081 C-59.96920343 78.08226873 -61.78163895 79.15914782 -66.9375 79.25 C-67.81277344 79.27578125 -68.68804687 79.3015625 -69.58984375 79.328125 C-72 79 -72 79 -73.7890625 77.66015625 C-75.71571576 75.01877678 -75.43730535 73.1860818 -75 70 C-72.20088744 65.23413772 -68.79543467 61.51349118 -64.90209961 57.65917969 C-64.00136971 56.75560226 -64.00136971 56.75560226 -63.08244324 55.83377075 C-61.11058505 53.85822937 -59.13165742 51.88994434 -57.15234375 49.921875 C-55.77482728 48.54555156 -54.39768128 47.16885723 -53.02088928 45.79180908 C-50.14160427 42.91408456 -47.25900157 40.03974029 -44.3737793 37.16796875 C-40.67418362 33.48540216 -36.98124477 29.79624715 -33.29053402 26.10477829 C-30.45043776 23.26495374 -27.6077445 20.42774117 -24.76416206 17.59140778 C-23.40119162 16.23162012 -22.03882654 14.87122542 -20.67707634 13.51021576 C-18.77672153 11.61202635 -16.8731121 9.71716451 -14.96850586 7.82324219 C-14.40583008 7.26011322 -13.8431543 6.69698425 -13.26342773 6.11679077 C-6.33015472 -0.75961857 -6.33015472 -0.75961857 0 0 Z " fill="#000000" transform="translate(461,433)"/>
<path d="M0 0 C2.4375 1.5625 2.4375 1.5625 4 4 C4.6875 7.25 4.6875 7.25 4 11 C2.70002747 12.81312561 2.70002747 12.81312561 0.98754883 14.69555664 C0.35136627 15.39544708 -0.28481628 16.09533752 -0.9402771 16.81643677 C-4.39589886 20.47982693 -7.9225293 24.06502958 -11.48828125 27.62109375 C-12.27269089 28.40646011 -13.05710052 29.19182648 -13.86528015 30.00099182 C-15.50864976 31.64503717 -17.15326375 33.28783953 -18.79907227 34.92944336 C-21.32620148 37.4511722 -23.84789288 39.97825164 -26.36914062 42.50585938 C-27.97103324 44.10709195 -29.57323563 45.70801471 -31.17578125 47.30859375 C-31.93095535 48.06579208 -32.68612946 48.82299042 -33.46418762 49.60313416 C-34.51119087 50.64540916 -34.51119087 50.64540916 -35.5793457 51.70874023 C-36.50031792 52.62851906 -36.50031792 52.62851906 -37.43989563 53.56687927 C-39.61406104 55.56407996 -40.85312916 55.98041722 -43.8125 56.375 C-47 56 -47 56 -49.875 53.875 C-52 51 -52 51 -52.75 48.1875 C-50.9110073 40.37178103 -42.05741233 33.90953276 -36.51171875 28.37890625 C-35.33510429 27.2008567 -35.33510429 27.2008567 -34.13471985 25.99900818 C-32.49135024 24.35496283 -30.84673625 22.71216047 -29.20092773 21.07055664 C-26.67379852 18.5488278 -24.15210712 16.02174836 -21.63085938 13.49414062 C-20.02896676 11.89290805 -18.42676437 10.29198529 -16.82421875 8.69140625 C-16.06904465 7.93420792 -15.31387054 7.17700958 -14.53581238 6.39686584 C-13.83781021 5.70201584 -13.13980804 5.00716583 -12.4206543 4.29125977 C-11.80667282 3.67807388 -11.19269135 3.064888 -10.56010437 2.43312073 C-7.27015683 -0.58904376 -4.34349601 -0.37443931 0 0 Z " fill="#000000" transform="translate(430,401)"/>
<path d="M0 0 C2.4375 1.5625 2.4375 1.5625 4 4 C4.6875 7.25 4.6875 7.25 4 11 C2.70002747 12.81312561 2.70002747 12.81312561 0.98754883 14.69555664 C0.35136627 15.39544708 -0.28481628 16.09533752 -0.9402771 16.81643677 C-4.39589886 20.47982693 -7.9225293 24.06502958 -11.48828125 27.62109375 C-12.27269089 28.40646011 -13.05710052 29.19182648 -13.86528015 30.00099182 C-15.50864976 31.64503717 -17.15326375 33.28783953 -18.79907227 34.92944336 C-21.32620148 37.4511722 -23.84789288 39.97825164 -26.36914062 42.50585938 C-27.97103324 44.10709195 -29.57323563 45.70801471 -31.17578125 47.30859375 C-31.93095535 48.06579208 -32.68612946 48.82299042 -33.46418762 49.60313416 C-34.51119087 50.64540916 -34.51119087 50.64540916 -35.5793457 51.70874023 C-36.50031792 52.62851906 -36.50031792 52.62851906 -37.43989563 53.56687927 C-39.61406104 55.56407996 -40.85312916 55.98041722 -43.8125 56.375 C-47 56 -47 56 -49.875 53.875 C-52 51 -52 51 -52.75 48.1875 C-50.9110073 40.37178103 -42.05741233 33.90953276 -36.51171875 28.37890625 C-35.33510429 27.2008567 -35.33510429 27.2008567 -34.13471985 25.99900818 C-32.49135024 24.35496283 -30.84673625 22.71216047 -29.20092773 21.07055664 C-26.67379852 18.5488278 -24.15210712 16.02174836 -21.63085938 13.49414062 C-20.02896676 11.89290805 -18.42676437 10.29198529 -16.82421875 8.69140625 C-16.06904465 7.93420792 -15.31387054 7.17700958 -14.53581238 6.39686584 C-13.83781021 5.70201584 -13.13980804 5.00716583 -12.4206543 4.29125977 C-11.80667282 3.67807388 -11.19269135 3.064888 -10.56010437 2.43312073 C-7.27015683 -0.58904376 -4.34349601 -0.37443931 0 0 Z " fill="#000000" transform="translate(108,83)"/>
<path d="M0 0 C3.27269748 2.04543593 3.84566918 3.40641993 4.8125 7.125 C3.92006073 11.38124882 3.01203545 12.44729204 0.125 15.5546875 C-0.69057373 16.43366699 -1.50614746 17.31264648 -2.34643555 18.21826172 C-6.78128623 22.86732683 -11.27092436 27.45520109 -15.8125 32 C-16.74944198 32.94912693 -17.68629128 33.89834536 -18.62304688 34.84765625 C-19.51701172 35.74355469 -20.41097656 36.63945312 -21.33203125 37.5625 C-22.13358643 38.36816406 -22.9351416 39.17382812 -23.76098633 40.00390625 C-27.18683739 43.05807246 -28.93048477 44.03752685 -33.5625 43.875 C-37 43 -37 43 -38.9375 41.375 C-40.48483906 37.9162421 -40.48002361 35.78211371 -40 32 C-38.1258675 29.0763245 -35.74974402 26.74454577 -33.28125 24.31640625 C-32.58994995 23.61603745 -31.8986499 22.91566864 -31.18640137 22.19407654 C-29.72215885 20.72070463 -28.24896727 19.25617971 -26.76757812 17.80004883 C-24.50888923 15.57127151 -22.29300511 13.30542402 -20.078125 11.03320312 C-18.6482444 9.60435394 -17.21602615 8.1778395 -15.78125 6.75390625 C-15.12257935 6.07590469 -14.46390869 5.39790314 -13.78527832 4.69935608 C-9.13936214 0.2130528 -6.46266091 -0.91531433 0 0 Z " fill="#000000" transform="translate(406,361)"/>
<path d="M0 0 C2.4375 1.5 2.4375 1.5 4 4 C4.55768914 7.93761539 4.91779968 10.51076039 2.79977417 13.94750977 C1.03830429 16.00361026 -0.81191623 17.89462921 -2.75390625 19.78125 C-3.44757797 20.48020386 -4.14124969 21.17915771 -4.85594177 21.89929199 C-6.32335939 23.36776887 -7.80076861 24.82632053 -9.28735352 26.27539062 C-11.55725516 28.49487166 -13.7843653 30.75162254 -16.00976562 33.015625 C-17.44292613 34.43990528 -18.87839924 35.86186309 -20.31640625 37.28125 C-20.98023819 37.9561145 -21.64407013 38.630979 -22.32801819 39.32629395 C-25.62256753 42.49067015 -27.18893868 43.88961918 -31.83178711 44.52148438 C-35 44 -35 44 -37.375 42.375 C-39.415231 39.39312393 -40 37.62548925 -40 34 C-37.26343433 29.27682647 -33.87770391 25.59587303 -30.02734375 21.796875 C-29.46302139 21.23301086 -28.89869904 20.66914673 -28.317276 20.0881958 C-27.13210166 18.90602434 -25.94451618 17.72626564 -24.75463867 16.54882812 C-22.9341108 14.74664495 -21.12180076 12.93649895 -19.31054688 11.125 C-18.15411797 9.97348398 -16.99723272 8.82242604 -15.83984375 7.671875 C-15.29915756 7.13230164 -14.75847137 6.59272827 -14.20140076 6.0368042 C-9.4557881 1.35086079 -6.84209994 -0.72022105 0 0 Z " fill="#000000" transform="translate(148,107)"/>
</svg>
